<svg version="1.2" xmlns="http://www.w3.org/2000/svg" viewBox="0 0 48 48" width="48" height="48">
	<style>
		.s0 { fill: #ffffff } 
	</style>
	<path class="s0" d="m24 4c-3.51 0-6.43 2.62-6.92 6h-6.84q-0.03-0.01-0.07-0.01-0.03 0-0.06-0.01-0.03 0-0.06 0-0.04 0-0.07 0-0.03 0-0.06 0-0.02 0-0.05 0.01-0.03 0-0.06 0-0.02 0.01-0.05 0.01h-3.26c-0.4-0.01-0.79 0.15-1.07 0.43-0.29 0.28-0.45 0.67-0.45 1.07 0 0.4 0.16 0.79 0.45 1.07 0.28 0.28 0.67 0.44 1.07 0.43h2.14l2.52 26.03c0.27 2.81 2.65 4.97 5.47 4.97h14.74c2.82 0 5.2-2.16 5.47-4.97l2.52-26.03h2.14c0.4 0.01 0.79-0.15 1.07-0.43 0.29-0.28 0.45-0.67 0.45-1.07 0-0.4-0.16-0.79-0.45-1.07-0.28-0.28-0.67-0.44-1.07-0.43h-3.26q-0.06-0.01-0.12-0.01-0.06-0.01-0.12-0.01-0.06 0-0.12 0.01-0.06 0-0.12 0.01h-6.84c-0.49-3.38-3.41-6-6.92-6zm0 3c1.88 0 3.42 1.27 3.86 3h-7.72c0.44-1.73 1.98-3 3.86-3zm-12.35 6h24.7l-2.49 25.74c-0.13 1.3-1.19 2.26-2.49 2.26h-14.74c-1.3 0-2.36-0.97-2.49-2.26zm8.83 4.98q-0.3 0-0.57 0.12-0.28 0.12-0.48 0.33-0.21 0.22-0.32 0.5-0.11 0.27-0.11 0.57v15c0 0.4 0.15 0.79 0.43 1.07 0.29 0.29 0.67 0.45 1.07 0.45 0.4 0 0.79-0.16 1.07-0.45 0.28-0.28 0.44-0.67 0.43-1.07v-15q0.01-0.3-0.11-0.59-0.11-0.28-0.33-0.49-0.21-0.22-0.5-0.33-0.28-0.12-0.58-0.11zm7 0q-0.3 0-0.57 0.12-0.28 0.12-0.48 0.33-0.21 0.22-0.32 0.5-0.11 0.27-0.11 0.57v15c0 0.4 0.15 0.79 0.43 1.07 0.29 0.29 0.67 0.45 1.07 0.45 0.4 0 0.79-0.16 1.07-0.45 0.28-0.28 0.44-0.67 0.43-1.07v-15q0.01-0.3-0.11-0.59-0.11-0.28-0.33-0.49-0.21-0.22-0.5-0.33-0.28-0.12-0.58-0.11z"/>
</svg>